<?xml version="1.0" encoding="utf-8"?>
<!-- Generator: Adobe Illustrator 16.0.4, SVG Export Plug-In . SVG Version: 6.00 Build 0)  -->
<!DOCTYPE svg PUBLIC "-//W3C//DTD SVG 1.1//EN" "http://www.w3.org/Graphics/SVG/1.1/DTD/svg11.dtd">
<svg version="1.1" id="Layer_1" xmlns="http://www.w3.org/2000/svg" xmlns:xlink="http://www.w3.org/1999/xlink" x="0px" y="0px"
	 width="448px" height="128.001px" viewBox="0 0 448 128.001" enable-background="new 0 0 448 128.001" xml:space="preserve">
<g>
	<path d="M152.928,104.742h-4.681c-0.248-1.416-1.129-2.389-3.029-2.389c-1.597,0-2.67,0.666-2.67,1.889
		c0,1.028,0.743,1.473,2.147,1.778l2.616,0.61c3.414,0.75,5.645,2.139,5.645,5.389c0,3.779-3.084,6.139-7.765,6.139
		c-4.213,0-8.013-1.999-8.453-6.666h4.653c0.303,1.667,1.734,2.666,3.938,2.666c1.734,0,2.644-0.639,2.644-1.666
		c0-0.639-0.386-1.306-1.983-1.611l-3.083-0.694c-3.69-0.805-5.424-2.556-5.424-5.554c0-3.779,3.028-6.167,7.434-6.167
		C147.944,98.465,152.46,99.66,152.928,104.742z"/>
	<path d="M184.988,117.768h-3.607l-8.977-10.359v10.359h-4.653V98.882h3.552l9.031,10.637V98.882h4.654V117.768z"/>
	<path d="M219.424,108.326c0,5.499-4.267,9.832-9.939,9.832c-5.645,0-9.912-4.333-9.912-9.832c0-5.5,4.268-9.833,9.912-9.833
		C215.157,98.493,219.424,102.826,219.424,108.326z M214.688,108.326c0-2.973-2.175-5.473-5.204-5.473
		c-3.029,0-5.204,2.5-5.204,5.473c0,2.972,2.175,5.471,5.204,5.471C212.514,113.796,214.688,111.297,214.688,108.326z"/>
	<path d="M254.343,117.88h-4.488l-3.772-11.527l-3.772,11.527h-4.488l-6.058-18.998h4.929l3.497,11.748l3.965-11.693v-0.055h3.855
		l3.965,11.721l3.496-11.721h4.93L254.343,117.88z"/>
	<path d="M290.609,112.52c0,3.138-2.504,5.248-6.717,5.248h-9.803V98.882h9.251c4.048,0,6.444,1.943,6.444,5.027
		c0,1.749-0.964,3.555-2.617,4.138C289.454,108.547,290.609,110.492,290.609,112.52z M278.743,106.575h3.883
		c1.734,0,2.697-0.805,2.697-2.026c0-1.195-0.908-1.834-2.697-1.834h-3.883V106.575z M283.287,113.88
		c1.898,0,2.752-0.861,2.752-1.973c0-1.166-0.964-1.75-2.67-1.75h-4.626v3.723H283.287z"/>
	<path d="M323.997,108.326c0,5.499-4.268,9.832-9.939,9.832c-5.646,0-9.913-4.333-9.913-9.832c0-5.5,4.268-9.833,9.913-9.833
		C319.729,98.493,323.997,102.826,323.997,108.326z M319.261,108.326c0-2.973-2.174-5.473-5.203-5.473
		c-3.03,0-5.204,2.5-5.204,5.473c0,2.972,2.174,5.471,5.204,5.471C317.087,113.796,319.261,111.297,319.261,108.326z"/>
	<path d="M342.07,114.519l-1.238,3.249h-4.957l7.957-18.998h4.434l7.93,18.998h-4.93L350,114.519H342.07z M346.035,104.242
		l-2.424,6.277h4.847L346.035,104.242z"/>
	<path d="M374.417,112.297v5.471h-4.654V98.882h8.205c4.627,0,7.737,2.555,7.737,6.637c0,2.641-1.35,4.723-3.579,5.861l4.819,6.388
		h-5.618l-4.021-5.471H374.417z M377.857,108.076c1.79,0,3.222-1,3.222-2.557c0-1.526-1.432-2.5-3.222-2.5h-3.44v5.057H377.857z"/>
	<path d="M408.259,98.882c5.864,0,10.104,3.86,10.104,9.388c0,5.61-4.24,9.498-10.104,9.498h-7.545V98.882H408.259z
		 M408.259,113.547c3.027,0,5.369-2.277,5.369-5.277c0-2.917-2.342-5.167-5.369-5.167h-2.893v10.444H408.259z"/>
	<path d="M447.973,104.742h-4.682c-0.248-1.416-1.128-2.389-3.027-2.389c-1.598,0-2.672,0.666-2.672,1.889
		c0,1.028,0.743,1.473,2.148,1.778l2.616,0.61c3.413,0.75,5.644,2.139,5.644,5.389c0,3.779-3.084,6.139-7.765,6.139
		c-4.213,0-8.013-1.999-8.452-6.666h4.652c0.303,1.667,1.735,2.666,3.938,2.666c1.736,0,2.643-0.639,2.643-1.666
		c0-0.639-0.386-1.306-1.98-1.611l-3.085-0.694c-3.69-0.805-5.425-2.556-5.425-5.554c0-3.779,3.029-6.167,7.436-6.167
		C442.988,98.465,447.505,99.66,447.973,104.742z"/>
	<path d="M428.464,0v49.231L395.907,0h-0.001h-26.044v59.078h-48.836v-9.846h29.301V29.539h-29.301v-9.846h39.068V0h-58.602v49.232
		L268.936,0h-26.045l52.091,78.772h94.414V29.54l32.558,49.232h26.045V0H428.464z"/>
	<path d="M205.107,0v55.001l19.534,19.692V29.54l32.557,49.232h26.046L231.152,0H205.107z"/>
	<path d="M195.34,39.386V0h-58.602v19.693h39.067l-39.067,19.692v39.387h19.534V45.95l32.558,32.822h26.044l-39.068-39.386H195.34z"
		/>
	<path d="M0,49.231l0,19.692l35.161,17.725l-5.86,11.814h14.651l4.883,19.692l9.767,9.847l9.767-9.847l4.884-19.692h14.65
		l-5.86-11.814l35.161-17.725V49.231l-58.602,29.54L0,49.231z"/>
	<path d="M71.374,32.946L97.67,19.693H53.718L41.322,40.522L0,19.692v19.693l58.601,29.538l58.602-29.538V19.692l-41.322,20.83
		L71.374,32.946z"/>
	<path d="M9.767,108.311V83.693L0,78.771l0,39.386l39.068-0.002l-2.442-9.845L9.767,108.311z"/>
	<path d="M107.437,108.311l-26.859-0.001l-2.441,9.845l39.068,0.002V78.771l-9.767,4.922V108.311z"/>
	<path d="M0,0v9.847h117.204V0H0z"/>
</g>
</svg>
