<?xml version="1.0" standalone="no"?>
<!DOCTYPE svg PUBLIC "-//W3C//DTD SVG 20010904//EN"
 "http://www.w3.org/TR/2001/REC-SVG-20010904/DTD/svg10.dtd">
<svg version="1.0" xmlns="http://www.w3.org/2000/svg"
 width="68.000000pt" height="59.000000pt" viewBox="0 0 68.000000 59.000000"
 preserveAspectRatio="xMidYMid meet">
<metadata>
Created by potrace 1.10, written by Peter Selinger 2001-2011
</metadata>
<g transform="translate(0.000000,59.000000) scale(0.100000,-0.100000)"
fill="#000000" stroke="none">
<path d="M230 437 c-41 -50 -103 -124 -138 -164 -34 -40 -62 -74 -62 -77 0 -3
19 -4 42 -3 38 1 45 6 86 59 25 32 48 58 51 58 2 0 17 -11 31 -25 l26 -25 22
29 21 29 -25 23 c-29 27 -29 27 1 64 l24 29 29 -27 28 -27 21 24 21 24 -52 51
-51 50 -75 -92z m18 -103 c-4 -3 -16 -3 -28 1 -17 5 -19 9 -9 21 11 13 14 13
28 0 8 -9 12 -18 9 -22z"/>
<path d="M473 461 c-6 -10 -51 -65 -98 -121 l-87 -102 23 -24 c22 -23 25 -24
175 -21 l153 2 -76 77 -76 76 -18 -21 c-17 -21 -17 -23 16 -57 l35 -35 -76 3
c-47 3 -80 0 -87 -7 -14 -14 -27 -14 -27 -1 0 6 10 14 23 19 12 5 57 49 99 98
75 88 76 89 58 111 -22 27 -22 27 -37 3z"/>
<path d="M21 123 c0 -21 3 -31 6 -23 3 8 11 18 17 22 8 5 7 8 -1 8 -19 0 -16
18 5 23 13 4 11 5 -5 6 -20 1 -23 -4 -22 -36z"/>
<path d="M284 148 c-4 -6 1 -17 11 -25 17 -12 17 -13 2 -13 -9 0 -17 -4 -17
-10 0 -5 7 -10 15 -10 21 0 31 30 14 41 -12 8 -12 11 1 19 13 8 13 10 -2 10
-9 0 -20 -5 -24 -12z"/>
<path d="M91 118 c1 -19 3 -25 6 -15 4 17 6 17 17 1 11 -15 13 -13 13 15 0 23
-5 31 -19 31 -14 0 -18 -7 -17 -32z"/>
<path d="M150 125 c0 -14 7 -28 15 -32 22 -8 33 6 15 17 -13 9 -13 10 0 10 12
0 13 2 1 9 -11 7 -11 9 0 14 8 3 4 6 -8 6 -18 1 -23 -4 -23 -24z"/>
<path d="M220 120 c0 -20 5 -30 15 -30 8 0 15 5 15 10 0 6 -6 10 -12 10 -9 0
-8 4 2 10 13 9 13 10 0 10 -13 0 -13 1 0 10 13 8 12 10 -2 10 -13 0 -18 -8
-18 -30z"/>
<path d="M358 142 c7 -5 10 -16 7 -24 -4 -9 -2 -19 3 -22 5 -3 12 8 14 24 4
25 1 30 -16 30 -15 0 -17 -3 -8 -8z"/>
<path d="M427 120 c3 -14 7 -27 9 -29 6 -7 11 2 17 29 5 21 3 26 -13 26 -16 0
-18 -5 -13 -26z"/>
<path d="M550 120 c0 -25 4 -30 23 -30 21 1 21 1 4 14 -18 14 -18 14 0 19 16
4 16 5 -2 7 -20 1 -20 1 0 10 19 8 19 9 -2 9 -19 1 -23 -4 -23 -29z"/>
<path d="M610 126 c0 -30 17 -43 23 -19 4 17 5 17 6 1 0 -10 5 -18 10 -18 5 0
8 12 7 28 -4 38 -46 46 -46 8z"/>
</g>
</svg>
